<?xml version="1.0" encoding="utf-8" standalone="no"?>
<!DOCTYPE svg PUBLIC "-//W3C//DTD SVG 1.1//EN"
  "http://www.w3.org/Graphics/SVG/1.1/DTD/svg11.dtd">
<!-- Created with matplotlib (http://matplotlib.org/) -->
<svg height="288pt" version="1.1" viewBox="0 0 432 288" width="432pt" xmlns="http://www.w3.org/2000/svg" xmlns:xlink="http://www.w3.org/1999/xlink">
 <defs>
  <style type="text/css">
*{stroke-linecap:butt;stroke-linejoin:round;}
  </style>
 </defs>
 <g id="figure_1">
  <g id="patch_1">
   <path d="M 0 288 
L 432 288 
L 432 0 
L 0 0 
z
" style="fill:#ffffff;"/>
  </g>
  <g id="axes_1">
   <g id="patch_2">
    <path d="M 54 252 
L 388.8 252 
L 388.8 34.56 
L 54 34.56 
z
" style="fill:#ffffff;"/>
   </g>
   <g id="matplotlib.axis_1">
    <g id="xtick_1">
     <g id="line2d_1">
      <defs>
       <path d="M 0 0 
L 0 6 
" id="m8f9bf98f20" style="stroke:#262626;stroke-width:1.25;"/>
      </defs>
      <g>
       <use style="fill:#262626;stroke:#262626;stroke-width:1.25;" x="54" xlink:href="#m8f9bf98f20" y="252"/>
      </g>
     </g>
     <g id="text_1">
      <!-- −0.4 -->
      <defs>
       <path d="M 52.828125 31.203125 
L 5.5625 31.203125 
L 5.5625 39.40625 
L 52.828125 39.40625 
z
" id="ArialMT-2212"/>
       <path d="M 4.15625 35.296875 
Q 4.15625 48 6.765625 55.734375 
Q 9.375 63.484375 14.515625 67.671875 
Q 19.671875 71.875 27.484375 71.875 
Q 33.25 71.875 37.59375 69.546875 
Q 41.9375 67.234375 44.765625 62.859375 
Q 47.609375 58.5 49.21875 52.21875 
Q 50.828125 45.953125 50.828125 35.296875 
Q 50.828125 22.703125 48.234375 14.96875 
Q 45.65625 7.234375 40.5 3 
Q 35.359375 -1.21875 27.484375 -1.21875 
Q 17.140625 -1.21875 11.234375 6.203125 
Q 4.15625 15.140625 4.15625 35.296875 
z
M 13.1875 35.296875 
Q 13.1875 17.671875 17.3125 11.828125 
Q 21.4375 6 27.484375 6 
Q 33.546875 6 37.671875 11.859375 
Q 41.796875 17.71875 41.796875 35.296875 
Q 41.796875 52.984375 37.671875 58.78125 
Q 33.546875 64.59375 27.390625 64.59375 
Q 21.34375 64.59375 17.71875 59.46875 
Q 13.1875 52.9375 13.1875 35.296875 
z
" id="ArialMT-30"/>
       <path d="M 9.078125 0 
L 9.078125 10.015625 
L 19.09375 10.015625 
L 19.09375 0 
z
" id="ArialMT-2e"/>
       <path d="M 32.328125 0 
L 32.328125 17.140625 
L 1.265625 17.140625 
L 1.265625 25.203125 
L 33.9375 71.578125 
L 41.109375 71.578125 
L 41.109375 25.203125 
L 50.78125 25.203125 
L 50.78125 17.140625 
L 41.109375 17.140625 
L 41.109375 0 
z
M 32.328125 25.203125 
L 32.328125 57.46875 
L 9.90625 25.203125 
z
" id="ArialMT-34"/>
      </defs>
      <g style="fill:#262626;" transform="translate(43.142656 269.373594)scale(0.11 -0.11)">
       <use xlink:href="#ArialMT-2212"/>
       <use x="58.398438" xlink:href="#ArialMT-30"/>
       <use x="114.013672" xlink:href="#ArialMT-2e"/>
       <use x="141.796875" xlink:href="#ArialMT-34"/>
      </g>
     </g>
    </g>
    <g id="xtick_2">
     <g id="line2d_2">
      <g>
       <use style="fill:#262626;stroke:#262626;stroke-width:1.25;" x="95.85" xlink:href="#m8f9bf98f20" y="252"/>
      </g>
     </g>
     <g id="text_2">
      <!-- −0.3 -->
      <defs>
       <path d="M 4.203125 18.890625 
L 12.984375 20.0625 
Q 14.5 12.59375 18.140625 9.296875 
Q 21.78125 6 27 6 
Q 33.203125 6 37.46875 10.296875 
Q 41.75 14.59375 41.75 20.953125 
Q 41.75 27 37.796875 30.921875 
Q 33.84375 34.859375 27.734375 34.859375 
Q 25.25 34.859375 21.53125 33.890625 
L 22.515625 41.609375 
Q 23.390625 41.5 23.921875 41.5 
Q 29.546875 41.5 34.03125 44.421875 
Q 38.53125 47.359375 38.53125 53.46875 
Q 38.53125 58.296875 35.25 61.46875 
Q 31.984375 64.65625 26.8125 64.65625 
Q 21.6875 64.65625 18.265625 61.421875 
Q 14.84375 58.203125 13.875 51.765625 
L 5.078125 53.328125 
Q 6.6875 62.15625 12.390625 67.015625 
Q 18.109375 71.875 26.609375 71.875 
Q 32.46875 71.875 37.390625 69.359375 
Q 42.328125 66.84375 44.9375 62.5 
Q 47.5625 58.15625 47.5625 53.265625 
Q 47.5625 48.640625 45.0625 44.828125 
Q 42.578125 41.015625 37.703125 38.765625 
Q 44.046875 37.3125 47.5625 32.6875 
Q 51.078125 28.078125 51.078125 21.140625 
Q 51.078125 11.765625 44.234375 5.25 
Q 37.40625 -1.265625 26.953125 -1.265625 
Q 17.53125 -1.265625 11.296875 4.34375 
Q 5.078125 9.96875 4.203125 18.890625 
z
" id="ArialMT-33"/>
      </defs>
      <g style="fill:#262626;" transform="translate(84.992656 269.373594)scale(0.11 -0.11)">
       <use xlink:href="#ArialMT-2212"/>
       <use x="58.398438" xlink:href="#ArialMT-30"/>
       <use x="114.013672" xlink:href="#ArialMT-2e"/>
       <use x="141.796875" xlink:href="#ArialMT-33"/>
      </g>
     </g>
    </g>
    <g id="xtick_3">
     <g id="line2d_3">
      <g>
       <use style="fill:#262626;stroke:#262626;stroke-width:1.25;" x="137.7" xlink:href="#m8f9bf98f20" y="252"/>
      </g>
     </g>
     <g id="text_3">
      <!-- −0.2 -->
      <defs>
       <path d="M 50.34375 8.453125 
L 50.34375 0 
L 3.03125 0 
Q 2.9375 3.171875 4.046875 6.109375 
Q 5.859375 10.9375 9.828125 15.625 
Q 13.8125 20.3125 21.34375 26.46875 
Q 33.015625 36.03125 37.109375 41.625 
Q 41.21875 47.21875 41.21875 52.203125 
Q 41.21875 57.421875 37.46875 61 
Q 33.734375 64.59375 27.734375 64.59375 
Q 21.390625 64.59375 17.578125 60.78125 
Q 13.765625 56.984375 13.71875 50.25 
L 4.6875 51.171875 
Q 5.609375 61.28125 11.65625 66.578125 
Q 17.71875 71.875 27.9375 71.875 
Q 38.234375 71.875 44.234375 66.15625 
Q 50.25 60.453125 50.25 52 
Q 50.25 47.703125 48.484375 43.546875 
Q 46.734375 39.40625 42.65625 34.8125 
Q 38.578125 30.21875 29.109375 22.21875 
Q 21.1875 15.578125 18.9375 13.203125 
Q 16.703125 10.84375 15.234375 8.453125 
z
" id="ArialMT-32"/>
      </defs>
      <g style="fill:#262626;" transform="translate(126.842656 269.373594)scale(0.11 -0.11)">
       <use xlink:href="#ArialMT-2212"/>
       <use x="58.398438" xlink:href="#ArialMT-30"/>
       <use x="114.013672" xlink:href="#ArialMT-2e"/>
       <use x="141.796875" xlink:href="#ArialMT-32"/>
      </g>
     </g>
    </g>
    <g id="xtick_4">
     <g id="line2d_4">
      <g>
       <use style="fill:#262626;stroke:#262626;stroke-width:1.25;" x="179.55" xlink:href="#m8f9bf98f20" y="252"/>
      </g>
     </g>
     <g id="text_4">
      <!-- −0.1 -->
      <defs>
       <path d="M 37.25 0 
L 28.46875 0 
L 28.46875 56 
Q 25.296875 52.984375 20.140625 49.953125 
Q 14.984375 46.921875 10.890625 45.40625 
L 10.890625 53.90625 
Q 18.265625 57.375 23.78125 62.296875 
Q 29.296875 67.234375 31.59375 71.875 
L 37.25 71.875 
z
" id="ArialMT-31"/>
      </defs>
      <g style="fill:#262626;" transform="translate(168.692656 269.373594)scale(0.11 -0.11)">
       <use xlink:href="#ArialMT-2212"/>
       <use x="58.398438" xlink:href="#ArialMT-30"/>
       <use x="114.013672" xlink:href="#ArialMT-2e"/>
       <use x="141.796875" xlink:href="#ArialMT-31"/>
      </g>
     </g>
    </g>
    <g id="xtick_5">
     <g id="line2d_5">
      <g>
       <use style="fill:#262626;stroke:#262626;stroke-width:1.25;" x="221.4" xlink:href="#m8f9bf98f20" y="252"/>
      </g>
     </g>
     <g id="text_5">
      <!-- 0.0 -->
      <g style="fill:#262626;" transform="translate(213.755 269.373594)scale(0.11 -0.11)">
       <use xlink:href="#ArialMT-30"/>
       <use x="55.615234" xlink:href="#ArialMT-2e"/>
       <use x="83.398438" xlink:href="#ArialMT-30"/>
      </g>
     </g>
    </g>
    <g id="xtick_6">
     <g id="line2d_6">
      <g>
       <use style="fill:#262626;stroke:#262626;stroke-width:1.25;" x="263.25" xlink:href="#m8f9bf98f20" y="252"/>
      </g>
     </g>
     <g id="text_6">
      <!-- 0.1 -->
      <g style="fill:#262626;" transform="translate(255.605 269.373594)scale(0.11 -0.11)">
       <use xlink:href="#ArialMT-30"/>
       <use x="55.615234" xlink:href="#ArialMT-2e"/>
       <use x="83.398438" xlink:href="#ArialMT-31"/>
      </g>
     </g>
    </g>
    <g id="xtick_7">
     <g id="line2d_7">
      <g>
       <use style="fill:#262626;stroke:#262626;stroke-width:1.25;" x="305.1" xlink:href="#m8f9bf98f20" y="252"/>
      </g>
     </g>
     <g id="text_7">
      <!-- 0.2 -->
      <g style="fill:#262626;" transform="translate(297.455 269.373594)scale(0.11 -0.11)">
       <use xlink:href="#ArialMT-30"/>
       <use x="55.615234" xlink:href="#ArialMT-2e"/>
       <use x="83.398438" xlink:href="#ArialMT-32"/>
      </g>
     </g>
    </g>
    <g id="xtick_8">
     <g id="line2d_8">
      <g>
       <use style="fill:#262626;stroke:#262626;stroke-width:1.25;" x="346.95" xlink:href="#m8f9bf98f20" y="252"/>
      </g>
     </g>
     <g id="text_8">
      <!-- 0.3 -->
      <g style="fill:#262626;" transform="translate(339.305 269.373594)scale(0.11 -0.11)">
       <use xlink:href="#ArialMT-30"/>
       <use x="55.615234" xlink:href="#ArialMT-2e"/>
       <use x="83.398438" xlink:href="#ArialMT-33"/>
      </g>
     </g>
    </g>
    <g id="xtick_9">
     <g id="line2d_9">
      <g>
       <use style="fill:#262626;stroke:#262626;stroke-width:1.25;" x="388.8" xlink:href="#m8f9bf98f20" y="252"/>
      </g>
     </g>
     <g id="text_9">
      <!-- 0.4 -->
      <g style="fill:#262626;" transform="translate(381.155 269.373594)scale(0.11 -0.11)">
       <use xlink:href="#ArialMT-30"/>
       <use x="55.615234" xlink:href="#ArialMT-2e"/>
       <use x="83.398438" xlink:href="#ArialMT-34"/>
      </g>
     </g>
    </g>
    <g id="text_10">
     <!-- Time Delay (ps) -->
     <defs>
      <path d="M 25.921875 0 
L 25.921875 63.140625 
L 2.34375 63.140625 
L 2.34375 71.578125 
L 59.078125 71.578125 
L 59.078125 63.140625 
L 35.40625 63.140625 
L 35.40625 0 
z
" id="ArialMT-54"/>
      <path d="M 6.640625 61.46875 
L 6.640625 71.578125 
L 15.4375 71.578125 
L 15.4375 61.46875 
z
M 6.640625 0 
L 6.640625 51.859375 
L 15.4375 51.859375 
L 15.4375 0 
z
" id="ArialMT-69"/>
      <path d="M 6.59375 0 
L 6.59375 51.859375 
L 14.453125 51.859375 
L 14.453125 44.578125 
Q 16.890625 48.390625 20.9375 50.703125 
Q 25 53.03125 30.171875 53.03125 
Q 35.9375 53.03125 39.625 50.640625 
Q 43.3125 48.25 44.828125 43.953125 
Q 50.984375 53.03125 60.84375 53.03125 
Q 68.5625 53.03125 72.703125 48.75 
Q 76.859375 44.484375 76.859375 35.59375 
L 76.859375 0 
L 68.109375 0 
L 68.109375 32.671875 
Q 68.109375 37.9375 67.25 40.25 
Q 66.40625 42.578125 64.15625 43.984375 
Q 61.921875 45.40625 58.890625 45.40625 
Q 53.421875 45.40625 49.796875 41.765625 
Q 46.1875 38.140625 46.1875 30.125 
L 46.1875 0 
L 37.40625 0 
L 37.40625 33.6875 
Q 37.40625 39.546875 35.25 42.46875 
Q 33.109375 45.40625 28.21875 45.40625 
Q 24.515625 45.40625 21.359375 43.453125 
Q 18.21875 41.5 16.796875 37.734375 
Q 15.375 33.984375 15.375 26.90625 
L 15.375 0 
z
" id="ArialMT-6d"/>
      <path d="M 42.09375 16.703125 
L 51.171875 15.578125 
Q 49.03125 7.625 43.21875 3.21875 
Q 37.40625 -1.171875 28.375 -1.171875 
Q 17 -1.171875 10.328125 5.828125 
Q 3.65625 12.84375 3.65625 25.484375 
Q 3.65625 38.578125 10.390625 45.796875 
Q 17.140625 53.03125 27.875 53.03125 
Q 38.28125 53.03125 44.875 45.953125 
Q 51.46875 38.875 51.46875 26.03125 
Q 51.46875 25.25 51.421875 23.6875 
L 12.75 23.6875 
Q 13.234375 15.140625 17.578125 10.59375 
Q 21.921875 6.0625 28.421875 6.0625 
Q 33.25 6.0625 36.671875 8.59375 
Q 40.09375 11.140625 42.09375 16.703125 
z
M 13.234375 30.90625 
L 42.1875 30.90625 
Q 41.609375 37.453125 38.875 40.71875 
Q 34.671875 45.796875 27.984375 45.796875 
Q 21.921875 45.796875 17.796875 41.75 
Q 13.671875 37.703125 13.234375 30.90625 
z
" id="ArialMT-65"/>
      <path id="ArialMT-20"/>
      <path d="M 7.71875 0 
L 7.71875 71.578125 
L 32.375 71.578125 
Q 40.71875 71.578125 45.125 70.5625 
Q 51.265625 69.140625 55.609375 65.4375 
Q 61.28125 60.640625 64.078125 53.1875 
Q 66.890625 45.75 66.890625 36.1875 
Q 66.890625 28.03125 64.984375 21.734375 
Q 63.09375 15.4375 60.109375 11.296875 
Q 57.125 7.171875 53.578125 4.796875 
Q 50.046875 2.4375 45.046875 1.21875 
Q 40.046875 0 33.546875 0 
z
M 17.1875 8.453125 
L 32.46875 8.453125 
Q 39.546875 8.453125 43.578125 9.765625 
Q 47.609375 11.078125 50 13.484375 
Q 53.375 16.84375 55.25 22.53125 
Q 57.125 28.21875 57.125 36.328125 
Q 57.125 47.5625 53.4375 53.59375 
Q 49.75 59.625 44.484375 61.671875 
Q 40.671875 63.140625 32.234375 63.140625 
L 17.1875 63.140625 
z
" id="ArialMT-44"/>
      <path d="M 6.390625 0 
L 6.390625 71.578125 
L 15.1875 71.578125 
L 15.1875 0 
z
" id="ArialMT-6c"/>
      <path d="M 40.4375 6.390625 
Q 35.546875 2.25 31.03125 0.53125 
Q 26.515625 -1.171875 21.34375 -1.171875 
Q 12.796875 -1.171875 8.203125 3 
Q 3.609375 7.171875 3.609375 13.671875 
Q 3.609375 17.484375 5.34375 20.625 
Q 7.078125 23.78125 9.890625 25.6875 
Q 12.703125 27.59375 16.21875 28.5625 
Q 18.796875 29.25 24.03125 29.890625 
Q 34.671875 31.15625 39.703125 32.90625 
Q 39.75 34.71875 39.75 35.203125 
Q 39.75 40.578125 37.25 42.78125 
Q 33.890625 45.75 27.25 45.75 
Q 21.046875 45.75 18.09375 43.578125 
Q 15.140625 41.40625 13.71875 35.890625 
L 5.125 37.0625 
Q 6.296875 42.578125 8.984375 45.96875 
Q 11.671875 49.359375 16.75 51.1875 
Q 21.828125 53.03125 28.515625 53.03125 
Q 35.15625 53.03125 39.296875 51.46875 
Q 43.453125 49.90625 45.40625 47.53125 
Q 47.359375 45.171875 48.140625 41.546875 
Q 48.578125 39.3125 48.578125 33.453125 
L 48.578125 21.734375 
Q 48.578125 9.46875 49.140625 6.21875 
Q 49.703125 2.984375 51.375 0 
L 42.1875 0 
Q 40.828125 2.734375 40.4375 6.390625 
z
M 39.703125 26.03125 
Q 34.90625 24.078125 25.34375 22.703125 
Q 19.921875 21.921875 17.671875 20.9375 
Q 15.4375 19.96875 14.203125 18.09375 
Q 12.984375 16.21875 12.984375 13.921875 
Q 12.984375 10.40625 15.640625 8.0625 
Q 18.3125 5.71875 23.4375 5.71875 
Q 28.515625 5.71875 32.46875 7.9375 
Q 36.421875 10.15625 38.28125 14.015625 
Q 39.703125 17 39.703125 22.796875 
z
" id="ArialMT-61"/>
      <path d="M 6.203125 -19.96875 
L 5.21875 -11.71875 
Q 8.109375 -12.5 10.25 -12.5 
Q 13.1875 -12.5 14.9375 -11.515625 
Q 16.703125 -10.546875 17.828125 -8.796875 
Q 18.65625 -7.46875 20.515625 -2.25 
Q 20.75 -1.515625 21.296875 -0.09375 
L 1.609375 51.859375 
L 11.078125 51.859375 
L 21.875 21.828125 
Q 23.96875 16.109375 25.640625 9.8125 
Q 27.15625 15.875 29.25 21.625 
L 40.328125 51.859375 
L 49.125 51.859375 
L 29.390625 -0.875 
Q 26.21875 -9.421875 24.46875 -12.640625 
Q 22.125 -17 19.09375 -19.015625 
Q 16.0625 -21.046875 11.859375 -21.046875 
Q 9.328125 -21.046875 6.203125 -19.96875 
z
" id="ArialMT-79"/>
      <path d="M 23.390625 -21.046875 
Q 16.109375 -11.859375 11.078125 0.4375 
Q 6.0625 12.75 6.0625 25.921875 
Q 6.0625 37.546875 9.8125 48.1875 
Q 14.203125 60.546875 23.390625 72.796875 
L 29.6875 72.796875 
Q 23.78125 62.640625 21.875 58.296875 
Q 18.890625 51.5625 17.1875 44.234375 
Q 15.09375 35.109375 15.09375 25.875 
Q 15.09375 2.390625 29.6875 -21.046875 
z
" id="ArialMT-28"/>
      <path d="M 6.59375 -19.875 
L 6.59375 51.859375 
L 14.59375 51.859375 
L 14.59375 45.125 
Q 17.4375 49.078125 21 51.046875 
Q 24.5625 53.03125 29.640625 53.03125 
Q 36.28125 53.03125 41.359375 49.609375 
Q 46.4375 46.1875 49.015625 39.953125 
Q 51.609375 33.734375 51.609375 26.3125 
Q 51.609375 18.359375 48.75 11.984375 
Q 45.90625 5.609375 40.453125 2.21875 
Q 35.015625 -1.171875 29 -1.171875 
Q 24.609375 -1.171875 21.109375 0.6875 
Q 17.625 2.546875 15.375 5.375 
L 15.375 -19.875 
z
M 14.546875 25.640625 
Q 14.546875 15.625 18.59375 10.84375 
Q 22.65625 6.0625 28.421875 6.0625 
Q 34.28125 6.0625 38.453125 11.015625 
Q 42.625 15.96875 42.625 26.375 
Q 42.625 36.28125 38.546875 41.203125 
Q 34.46875 46.140625 28.8125 46.140625 
Q 23.1875 46.140625 18.859375 40.890625 
Q 14.546875 35.640625 14.546875 25.640625 
z
" id="ArialMT-70"/>
      <path d="M 3.078125 15.484375 
L 11.765625 16.84375 
Q 12.5 11.625 15.84375 8.84375 
Q 19.1875 6.0625 25.203125 6.0625 
Q 31.25 6.0625 34.171875 8.515625 
Q 37.109375 10.984375 37.109375 14.3125 
Q 37.109375 17.28125 34.515625 19 
Q 32.71875 20.171875 25.53125 21.96875 
Q 15.875 24.421875 12.140625 26.203125 
Q 8.40625 27.984375 6.46875 31.125 
Q 4.546875 34.28125 4.546875 38.09375 
Q 4.546875 41.546875 6.125 44.5 
Q 7.71875 47.46875 10.453125 49.421875 
Q 12.5 50.921875 16.03125 51.96875 
Q 19.578125 53.03125 23.640625 53.03125 
Q 29.734375 53.03125 34.34375 51.265625 
Q 38.96875 49.515625 41.15625 46.5 
Q 43.359375 43.5 44.1875 38.484375 
L 35.59375 37.3125 
Q 35.015625 41.3125 32.203125 43.546875 
Q 29.390625 45.796875 24.265625 45.796875 
Q 18.21875 45.796875 15.625 43.796875 
Q 13.03125 41.796875 13.03125 39.109375 
Q 13.03125 37.40625 14.109375 36.03125 
Q 15.1875 34.625 17.484375 33.6875 
Q 18.796875 33.203125 25.25 31.453125 
Q 34.578125 28.953125 38.25 27.359375 
Q 41.9375 25.78125 44.03125 22.75 
Q 46.140625 19.734375 46.140625 15.234375 
Q 46.140625 10.84375 43.578125 6.953125 
Q 41.015625 3.078125 36.171875 0.953125 
Q 31.34375 -1.171875 25.25 -1.171875 
Q 15.140625 -1.171875 9.84375 3.03125 
Q 4.546875 7.234375 3.078125 15.484375 
z
" id="ArialMT-73"/>
      <path d="M 12.359375 -21.046875 
L 6.0625 -21.046875 
Q 20.65625 2.390625 20.65625 25.875 
Q 20.65625 35.0625 18.5625 44.09375 
Q 16.890625 51.421875 13.921875 58.15625 
Q 12.015625 62.546875 6.0625 72.796875 
L 12.359375 72.796875 
Q 21.53125 60.546875 25.921875 48.1875 
Q 29.6875 37.546875 29.6875 25.921875 
Q 29.6875 12.75 24.625 0.4375 
Q 19.578125 -11.859375 12.359375 -21.046875 
z
" id="ArialMT-29"/>
     </defs>
     <g style="fill:#262626;" transform="translate(179.065313 284.295469)scale(0.12 -0.12)">
      <use xlink:href="#ArialMT-54"/>
      <use x="61.037109" xlink:href="#ArialMT-69"/>
      <use x="83.253906" xlink:href="#ArialMT-6d"/>
      <use x="166.554688" xlink:href="#ArialMT-65"/>
      <use x="222.169922" xlink:href="#ArialMT-20"/>
      <use x="249.953125" xlink:href="#ArialMT-44"/>
      <use x="322.169922" xlink:href="#ArialMT-65"/>
      <use x="377.785156" xlink:href="#ArialMT-6c"/>
      <use x="400.001953" xlink:href="#ArialMT-61"/>
      <use x="455.617188" xlink:href="#ArialMT-79"/>
      <use x="505.617188" xlink:href="#ArialMT-20"/>
      <use x="533.400391" xlink:href="#ArialMT-28"/>
      <use x="566.701172" xlink:href="#ArialMT-70"/>
      <use x="622.316406" xlink:href="#ArialMT-73"/>
      <use x="672.316406" xlink:href="#ArialMT-29"/>
     </g>
    </g>
   </g>
   <g id="matplotlib.axis_2">
    <g id="ytick_1">
     <g id="line2d_10">
      <defs>
       <path d="M 0 0 
L -6 0 
" id="maf4ec26066" style="stroke:#262626;stroke-width:1.25;"/>
      </defs>
      <g>
       <use style="fill:#262626;stroke:#262626;stroke-width:1.25;" x="54" xlink:href="#maf4ec26066" y="232.364348"/>
      </g>
     </g>
     <g id="text_11">
      <!-- 1.0 -->
      <g style="fill:#262626;" transform="translate(29.21 236.301145)scale(0.11 -0.11)">
       <use xlink:href="#ArialMT-31"/>
       <use x="55.615234" xlink:href="#ArialMT-2e"/>
       <use x="83.398438" xlink:href="#ArialMT-30"/>
      </g>
     </g>
    </g>
    <g id="ytick_2">
     <g id="line2d_11">
      <g>
       <use style="fill:#262626;stroke:#262626;stroke-width:1.25;" x="54" xlink:href="#maf4ec26066" y="206.43004"/>
      </g>
     </g>
     <g id="text_12">
      <!-- 1.5 -->
      <defs>
       <path d="M 4.15625 18.75 
L 13.375 19.53125 
Q 14.40625 12.796875 18.140625 9.390625 
Q 21.875 6 27.15625 6 
Q 33.5 6 37.890625 10.78125 
Q 42.28125 15.578125 42.28125 23.484375 
Q 42.28125 31 38.0625 35.34375 
Q 33.84375 39.703125 27 39.703125 
Q 22.75 39.703125 19.328125 37.765625 
Q 15.921875 35.84375 13.96875 32.765625 
L 5.71875 33.84375 
L 12.640625 70.609375 
L 48.25 70.609375 
L 48.25 62.203125 
L 19.671875 62.203125 
L 15.828125 42.96875 
Q 22.265625 47.46875 29.34375 47.46875 
Q 38.71875 47.46875 45.15625 40.96875 
Q 51.609375 34.46875 51.609375 24.265625 
Q 51.609375 14.546875 45.953125 7.46875 
Q 39.0625 -1.21875 27.15625 -1.21875 
Q 17.390625 -1.21875 11.203125 4.25 
Q 5.03125 9.71875 4.15625 18.75 
z
" id="ArialMT-35"/>
      </defs>
      <g style="fill:#262626;" transform="translate(29.21 210.366837)scale(0.11 -0.11)">
       <use xlink:href="#ArialMT-31"/>
       <use x="55.615234" xlink:href="#ArialMT-2e"/>
       <use x="83.398438" xlink:href="#ArialMT-35"/>
      </g>
     </g>
    </g>
    <g id="ytick_3">
     <g id="line2d_12">
      <g>
       <use style="fill:#262626;stroke:#262626;stroke-width:1.25;" x="54" xlink:href="#maf4ec26066" y="180.495732"/>
      </g>
     </g>
     <g id="text_13">
      <!-- 2.0 -->
      <g style="fill:#262626;" transform="translate(29.21 184.432529)scale(0.11 -0.11)">
       <use xlink:href="#ArialMT-32"/>
       <use x="55.615234" xlink:href="#ArialMT-2e"/>
       <use x="83.398438" xlink:href="#ArialMT-30"/>
      </g>
     </g>
    </g>
    <g id="ytick_4">
     <g id="line2d_13">
      <g>
       <use style="fill:#262626;stroke:#262626;stroke-width:1.25;" x="54" xlink:href="#maf4ec26066" y="154.561424"/>
      </g>
     </g>
     <g id="text_14">
      <!-- 2.5 -->
      <g style="fill:#262626;" transform="translate(29.21 158.498221)scale(0.11 -0.11)">
       <use xlink:href="#ArialMT-32"/>
       <use x="55.615234" xlink:href="#ArialMT-2e"/>
       <use x="83.398438" xlink:href="#ArialMT-35"/>
      </g>
     </g>
    </g>
    <g id="ytick_5">
     <g id="line2d_14">
      <g>
       <use style="fill:#262626;stroke:#262626;stroke-width:1.25;" x="54" xlink:href="#maf4ec26066" y="128.627116"/>
      </g>
     </g>
     <g id="text_15">
      <!-- 3.0 -->
      <g style="fill:#262626;" transform="translate(29.21 132.563913)scale(0.11 -0.11)">
       <use xlink:href="#ArialMT-33"/>
       <use x="55.615234" xlink:href="#ArialMT-2e"/>
       <use x="83.398438" xlink:href="#ArialMT-30"/>
      </g>
     </g>
    </g>
    <g id="ytick_6">
     <g id="line2d_15">
      <g>
       <use style="fill:#262626;stroke:#262626;stroke-width:1.25;" x="54" xlink:href="#maf4ec26066" y="102.692808"/>
      </g>
     </g>
     <g id="text_16">
      <!-- 3.5 -->
      <g style="fill:#262626;" transform="translate(29.21 106.629605)scale(0.11 -0.11)">
       <use xlink:href="#ArialMT-33"/>
       <use x="55.615234" xlink:href="#ArialMT-2e"/>
       <use x="83.398438" xlink:href="#ArialMT-35"/>
      </g>
     </g>
    </g>
    <g id="ytick_7">
     <g id="line2d_16">
      <g>
       <use style="fill:#262626;stroke:#262626;stroke-width:1.25;" x="54" xlink:href="#maf4ec26066" y="76.7585"/>
      </g>
     </g>
     <g id="text_17">
      <!-- 4.0 -->
      <g style="fill:#262626;" transform="translate(29.21 80.695297)scale(0.11 -0.11)">
       <use xlink:href="#ArialMT-34"/>
       <use x="55.615234" xlink:href="#ArialMT-2e"/>
       <use x="83.398438" xlink:href="#ArialMT-30"/>
      </g>
     </g>
    </g>
    <g id="ytick_8">
     <g id="line2d_17">
      <g>
       <use style="fill:#262626;stroke:#262626;stroke-width:1.25;" x="54" xlink:href="#maf4ec26066" y="50.824192"/>
      </g>
     </g>
     <g id="text_18">
      <!-- 4.5 -->
      <g style="fill:#262626;" transform="translate(29.21 54.760989)scale(0.11 -0.11)">
       <use xlink:href="#ArialMT-34"/>
       <use x="55.615234" xlink:href="#ArialMT-2e"/>
       <use x="83.398438" xlink:href="#ArialMT-35"/>
      </g>
     </g>
    </g>
    <g id="text_19">
     <!-- Intensity (arbitrary units) -->
     <defs>
      <path d="M 9.328125 0 
L 9.328125 71.578125 
L 18.796875 71.578125 
L 18.796875 0 
z
" id="ArialMT-49"/>
      <path d="M 6.59375 0 
L 6.59375 51.859375 
L 14.5 51.859375 
L 14.5 44.484375 
Q 20.21875 53.03125 31 53.03125 
Q 35.6875 53.03125 39.625 51.34375 
Q 43.5625 49.65625 45.515625 46.921875 
Q 47.46875 44.1875 48.25 40.4375 
Q 48.734375 37.984375 48.734375 31.890625 
L 48.734375 0 
L 39.9375 0 
L 39.9375 31.546875 
Q 39.9375 36.921875 38.90625 39.578125 
Q 37.890625 42.234375 35.28125 43.8125 
Q 32.671875 45.40625 29.15625 45.40625 
Q 23.53125 45.40625 19.453125 41.84375 
Q 15.375 38.28125 15.375 28.328125 
L 15.375 0 
z
" id="ArialMT-6e"/>
      <path d="M 25.78125 7.859375 
L 27.046875 0.09375 
Q 23.34375 -0.6875 20.40625 -0.6875 
Q 15.625 -0.6875 12.984375 0.828125 
Q 10.359375 2.34375 9.28125 4.8125 
Q 8.203125 7.28125 8.203125 15.1875 
L 8.203125 45.015625 
L 1.765625 45.015625 
L 1.765625 51.859375 
L 8.203125 51.859375 
L 8.203125 64.703125 
L 16.9375 69.96875 
L 16.9375 51.859375 
L 25.78125 51.859375 
L 25.78125 45.015625 
L 16.9375 45.015625 
L 16.9375 14.703125 
Q 16.9375 10.9375 17.40625 9.859375 
Q 17.875 8.796875 18.921875 8.15625 
Q 19.96875 7.515625 21.921875 7.515625 
Q 23.390625 7.515625 25.78125 7.859375 
z
" id="ArialMT-74"/>
      <path d="M 6.5 0 
L 6.5 51.859375 
L 14.40625 51.859375 
L 14.40625 44 
Q 17.4375 49.515625 20 51.265625 
Q 22.5625 53.03125 25.640625 53.03125 
Q 30.078125 53.03125 34.671875 50.203125 
L 31.640625 42.046875 
Q 28.421875 43.953125 25.203125 43.953125 
Q 22.3125 43.953125 20.015625 42.21875 
Q 17.71875 40.484375 16.75 37.40625 
Q 15.28125 32.71875 15.28125 27.15625 
L 15.28125 0 
z
" id="ArialMT-72"/>
      <path d="M 14.703125 0 
L 6.546875 0 
L 6.546875 71.578125 
L 15.328125 71.578125 
L 15.328125 46.046875 
Q 20.90625 53.03125 29.546875 53.03125 
Q 34.328125 53.03125 38.59375 51.09375 
Q 42.875 49.171875 45.625 45.671875 
Q 48.390625 42.1875 49.953125 37.25 
Q 51.515625 32.328125 51.515625 26.703125 
Q 51.515625 13.375 44.921875 6.09375 
Q 38.328125 -1.171875 29.109375 -1.171875 
Q 19.921875 -1.171875 14.703125 6.5 
z
M 14.59375 26.3125 
Q 14.59375 17 17.140625 12.84375 
Q 21.296875 6.0625 28.375 6.0625 
Q 34.125 6.0625 38.328125 11.0625 
Q 42.53125 16.0625 42.53125 25.984375 
Q 42.53125 36.140625 38.5 40.96875 
Q 34.46875 45.796875 28.765625 45.796875 
Q 23 45.796875 18.796875 40.796875 
Q 14.59375 35.796875 14.59375 26.3125 
z
" id="ArialMT-62"/>
      <path d="M 40.578125 0 
L 40.578125 7.625 
Q 34.515625 -1.171875 24.125 -1.171875 
Q 19.53125 -1.171875 15.546875 0.578125 
Q 11.578125 2.34375 9.640625 5 
Q 7.71875 7.671875 6.9375 11.53125 
Q 6.390625 14.109375 6.390625 19.734375 
L 6.390625 51.859375 
L 15.1875 51.859375 
L 15.1875 23.09375 
Q 15.1875 16.21875 15.71875 13.8125 
Q 16.546875 10.359375 19.234375 8.375 
Q 21.921875 6.390625 25.875 6.390625 
Q 29.828125 6.390625 33.296875 8.421875 
Q 36.765625 10.453125 38.203125 13.9375 
Q 39.65625 17.4375 39.65625 24.078125 
L 39.65625 51.859375 
L 48.4375 51.859375 
L 48.4375 0 
z
" id="ArialMT-75"/>
     </defs>
     <g style="fill:#262626;" transform="translate(22.684375 207.629063)rotate(-90)scale(0.12 -0.12)">
      <use xlink:href="#ArialMT-49"/>
      <use x="27.783203" xlink:href="#ArialMT-6e"/>
      <use x="83.398438" xlink:href="#ArialMT-74"/>
      <use x="111.181641" xlink:href="#ArialMT-65"/>
      <use x="166.796875" xlink:href="#ArialMT-6e"/>
      <use x="222.412109" xlink:href="#ArialMT-73"/>
      <use x="272.412109" xlink:href="#ArialMT-69"/>
      <use x="294.628906" xlink:href="#ArialMT-74"/>
      <use x="322.412109" xlink:href="#ArialMT-79"/>
      <use x="372.412109" xlink:href="#ArialMT-20"/>
      <use x="400.195312" xlink:href="#ArialMT-28"/>
      <use x="433.496094" xlink:href="#ArialMT-61"/>
      <use x="489.111328" xlink:href="#ArialMT-72"/>
      <use x="522.412109" xlink:href="#ArialMT-62"/>
      <use x="578.027344" xlink:href="#ArialMT-69"/>
      <use x="600.244141" xlink:href="#ArialMT-74"/>
      <use x="628.027344" xlink:href="#ArialMT-72"/>
      <use x="661.328125" xlink:href="#ArialMT-61"/>
      <use x="716.943359" xlink:href="#ArialMT-72"/>
      <use x="750.244141" xlink:href="#ArialMT-79"/>
      <use x="800.244141" xlink:href="#ArialMT-20"/>
      <use x="828.027344" xlink:href="#ArialMT-75"/>
      <use x="883.642578" xlink:href="#ArialMT-6e"/>
      <use x="939.257812" xlink:href="#ArialMT-69"/>
      <use x="961.474609" xlink:href="#ArialMT-74"/>
      <use x="989.257812" xlink:href="#ArialMT-73"/>
      <use x="1039.257812" xlink:href="#ArialMT-29"/>
     </g>
    </g>
    <g id="text_20">
     <!-- 1e3 -->
     <g style="fill:#262626;" transform="translate(54 31.56)scale(0.11 -0.11)">
      <use xlink:href="#ArialMT-31"/>
      <use x="55.615234" xlink:href="#ArialMT-65"/>
      <use x="111.230469" xlink:href="#ArialMT-33"/>
     </g>
    </g>
   </g>
   <g id="PathCollection_1">
    <defs>
     <path d="M 0 3 
C 0.795609 3 1.55874 2.683901 2.12132 2.12132 
C 2.683901 1.55874 3 0.795609 3 0 
C 3 -0.795609 2.683901 -1.55874 2.12132 -2.12132 
C 1.55874 -2.683901 0.795609 -3 0 -3 
C -0.795609 -3 -1.55874 -2.683901 -2.12132 -2.12132 
C -2.683901 -1.55874 -3 -0.795609 -3 0 
C -3 0.795609 -2.683901 1.55874 -2.12132 2.12132 
C -1.55874 2.683901 -0.795609 3 0 3 
z
" id="md2398a01c8" style="stroke:#66c2a5;"/>
    </defs>
    <g clip-path="url(#p6412d26ed3)">
     <use style="fill:#66c2a5;stroke:#66c2a5;" x="-1" xlink:href="#md2398a01c8" y="237.973285"/>
     <use style="fill:#66c2a5;stroke:#66c2a5;" x="-0.405" xlink:href="#md2398a01c8" y="237.91429"/>
     <use style="fill:#66c2a5;stroke:#66c2a5;" x="3.78" xlink:href="#md2398a01c8" y="237.966159"/>
     <use style="fill:#66c2a5;stroke:#66c2a5;" x="7.965" xlink:href="#md2398a01c8" y="237.758684"/>
     <use style="fill:#66c2a5;stroke:#66c2a5;" x="12.15" xlink:href="#md2398a01c8" y="237.862421"/>
     <use style="fill:#66c2a5;stroke:#66c2a5;" x="16.335" xlink:href="#md2398a01c8" y="236.980655"/>
     <use style="fill:#66c2a5;stroke:#66c2a5;" x="20.52" xlink:href="#md2398a01c8" y="238.536713"/>
     <use style="fill:#66c2a5;stroke:#66c2a5;" x="24.705" xlink:href="#md2398a01c8" y="238.173633"/>
     <use style="fill:#66c2a5;stroke:#66c2a5;" x="28.89" xlink:href="#md2398a01c8" y="236.565706"/>
     <use style="fill:#66c2a5;stroke:#66c2a5;" x="33.075" xlink:href="#md2398a01c8" y="236.254494"/>
     <use style="fill:#66c2a5;stroke:#66c2a5;" x="37.26" xlink:href="#md2398a01c8" y="237.239998"/>
     <use style="fill:#66c2a5;stroke:#66c2a5;" x="41.445" xlink:href="#md2398a01c8" y="233.972275"/>
     <use style="fill:#66c2a5;stroke:#66c2a5;" x="45.63" xlink:href="#md2398a01c8" y="236.4101"/>
     <use style="fill:#66c2a5;stroke:#66c2a5;" x="49.815" xlink:href="#md2398a01c8" y="234.439093"/>
     <use style="fill:#66c2a5;stroke:#66c2a5;" x="54" xlink:href="#md2398a01c8" y="234.387224"/>
     <use style="fill:#66c2a5;stroke:#66c2a5;" x="58.185" xlink:href="#md2398a01c8" y="233.505458"/>
     <use style="fill:#66c2a5;stroke:#66c2a5;" x="62.37" xlink:href="#md2398a01c8" y="230.80829"/>
     <use style="fill:#66c2a5;stroke:#66c2a5;" x="66.555" xlink:href="#md2398a01c8" y="233.401721"/>
     <use style="fill:#66c2a5;stroke:#66c2a5;" x="70.74" xlink:href="#md2398a01c8" y="233.972275"/>
     <use style="fill:#66c2a5;stroke:#66c2a5;" x="74.925" xlink:href="#md2398a01c8" y="232.883034"/>
     <use style="fill:#66c2a5;stroke:#66c2a5;" x="79.11" xlink:href="#md2398a01c8" y="232.883034"/>
     <use style="fill:#66c2a5;stroke:#66c2a5;" x="83.295" xlink:href="#md2398a01c8" y="231.275107"/>
     <use style="fill:#66c2a5;stroke:#66c2a5;" x="87.48" xlink:href="#md2398a01c8" y="230.237735"/>
     <use style="fill:#66c2a5;stroke:#66c2a5;" x="91.665" xlink:href="#md2398a01c8" y="230.497078"/>
     <use style="fill:#66c2a5;stroke:#66c2a5;" x="95.85" xlink:href="#md2398a01c8" y="230.756421"/>
     <use style="fill:#66c2a5;stroke:#66c2a5;" x="100.035" xlink:href="#md2398a01c8" y="228.992888"/>
     <use style="fill:#66c2a5;stroke:#66c2a5;" x="104.22" xlink:href="#md2398a01c8" y="230.133998"/>
     <use style="fill:#66c2a5;stroke:#66c2a5;" x="108.405" xlink:href="#md2398a01c8" y="231.53445"/>
     <use style="fill:#66c2a5;stroke:#66c2a5;" x="112.59" xlink:href="#md2398a01c8" y="229.252231"/>
     <use style="fill:#66c2a5;stroke:#66c2a5;" x="116.775" xlink:href="#md2398a01c8" y="228.837282"/>
     <use style="fill:#66c2a5;stroke:#66c2a5;" x="120.96" xlink:href="#md2398a01c8" y="228.318596"/>
     <use style="fill:#66c2a5;stroke:#66c2a5;" x="125.145" xlink:href="#md2398a01c8" y="228.474202"/>
     <use style="fill:#66c2a5;stroke:#66c2a5;" x="129.33" xlink:href="#md2398a01c8" y="224.635924"/>
     <use style="fill:#66c2a5;stroke:#66c2a5;" x="133.515" xlink:href="#md2398a01c8" y="223.079866"/>
     <use style="fill:#66c2a5;stroke:#66c2a5;" x="137.7" xlink:href="#md2398a01c8" y="217.996742"/>
     <use style="fill:#66c2a5;stroke:#66c2a5;" x="141.885" xlink:href="#md2398a01c8" y="214.002858"/>
     <use style="fill:#66c2a5;stroke:#66c2a5;" x="146.07" xlink:href="#md2398a01c8" y="210.372055"/>
     <use style="fill:#66c2a5;stroke:#66c2a5;" x="150.255" xlink:href="#md2398a01c8" y="204.822113"/>
     <use style="fill:#66c2a5;stroke:#66c2a5;" x="154.44" xlink:href="#md2398a01c8" y="201.295047"/>
     <use style="fill:#66c2a5;stroke:#66c2a5;" x="158.625" xlink:href="#md2398a01c8" y="194.915207"/>
     <use style="fill:#66c2a5;stroke:#66c2a5;" x="162.81" xlink:href="#md2398a01c8" y="182.466739"/>
     <use style="fill:#66c2a5;stroke:#66c2a5;" x="166.995" xlink:href="#md2398a01c8" y="171.57433"/>
     <use style="fill:#66c2a5;stroke:#66c2a5;" x="171.18" xlink:href="#md2398a01c8" y="164.727673"/>
     <use style="fill:#66c2a5;stroke:#66c2a5;" x="175.365" xlink:href="#md2398a01c8" y="157.777278"/>
     <use style="fill:#66c2a5;stroke:#66c2a5;" x="179.55" xlink:href="#md2398a01c8" y="141.127452"/>
     <use style="fill:#66c2a5;stroke:#66c2a5;" x="183.735" xlink:href="#md2398a01c8" y="127.693481"/>
     <use style="fill:#66c2a5;stroke:#66c2a5;" x="187.92" xlink:href="#md2398a01c8" y="117.527232"/>
     <use style="fill:#66c2a5;stroke:#66c2a5;" x="192.105" xlink:href="#md2398a01c8" y="100.047508"/>
     <use style="fill:#66c2a5;stroke:#66c2a5;" x="196.29" xlink:href="#md2398a01c8" y="85.316821"/>
     <use style="fill:#66c2a5;stroke:#66c2a5;" x="200.475" xlink:href="#md2398a01c8" y="82.723391"/>
     <use style="fill:#66c2a5;stroke:#66c2a5;" x="204.66" xlink:href="#md2398a01c8" y="70.326791"/>
     <use style="fill:#66c2a5;stroke:#66c2a5;" x="208.845" xlink:href="#md2398a01c8" y="55.233024"/>
     <use style="fill:#66c2a5;stroke:#66c2a5;" x="213.03" xlink:href="#md2398a01c8" y="54.714338"/>
     <use style="fill:#66c2a5;stroke:#66c2a5;" x="217.215" xlink:href="#md2398a01c8" y="52.224644"/>
     <use style="fill:#66c2a5;stroke:#66c2a5;" x="221.4" xlink:href="#md2398a01c8" y="44.444352"/>
     <use style="fill:#66c2a5;stroke:#66c2a5;" x="225.585" xlink:href="#md2398a01c8" y="55.959185"/>
     <use style="fill:#66c2a5;stroke:#66c2a5;" x="229.77" xlink:href="#md2398a01c8" y="54.818075"/>
     <use style="fill:#66c2a5;stroke:#66c2a5;" x="233.955" xlink:href="#md2398a01c8" y="52.535856"/>
     <use style="fill:#66c2a5;stroke:#66c2a5;" x="238.14" xlink:href="#md2398a01c8" y="65.554879"/>
     <use style="fill:#66c2a5;stroke:#66c2a5;" x="242.325" xlink:href="#md2398a01c8" y="79.870617"/>
     <use style="fill:#66c2a5;stroke:#66c2a5;" x="246.51" xlink:href="#md2398a01c8" y="89.414442"/>
     <use style="fill:#66c2a5;stroke:#66c2a5;" x="250.695" xlink:href="#md2398a01c8" y="98.49145"/>
     <use style="fill:#66c2a5;stroke:#66c2a5;" x="254.88" xlink:href="#md2398a01c8" y="112.288502"/>
     <use style="fill:#66c2a5;stroke:#66c2a5;" x="259.065" xlink:href="#md2398a01c8" y="122.817831"/>
     <use style="fill:#66c2a5;stroke:#66c2a5;" x="263.25" xlink:href="#md2398a01c8" y="132.776605"/>
     <use style="fill:#66c2a5;stroke:#66c2a5;" x="267.435" xlink:href="#md2398a01c8" y="147.97411"/>
     <use style="fill:#66c2a5;stroke:#66c2a5;" x="271.62" xlink:href="#md2398a01c8" y="161.615556"/>
     <use style="fill:#66c2a5;stroke:#66c2a5;" x="275.805" xlink:href="#md2398a01c8" y="170.122009"/>
     <use style="fill:#66c2a5;stroke:#66c2a5;" x="279.99" xlink:href="#md2398a01c8" y="180.703207"/>
     <use style="fill:#66c2a5;stroke:#66c2a5;" x="284.175" xlink:href="#md2398a01c8" y="187.134915"/>
     <use style="fill:#66c2a5;stroke:#66c2a5;" x="288.36" xlink:href="#md2398a01c8" y="194.552127"/>
     <use style="fill:#66c2a5;stroke:#66c2a5;" x="292.545" xlink:href="#md2398a01c8" y="199.738989"/>
     <use style="fill:#66c2a5;stroke:#66c2a5;" x="296.73" xlink:href="#md2398a01c8" y="207.259938"/>
     <use style="fill:#66c2a5;stroke:#66c2a5;" x="300.915" xlink:href="#md2398a01c8" y="208.815996"/>
     <use style="fill:#66c2a5;stroke:#66c2a5;" x="305.1" xlink:href="#md2398a01c8" y="215.714522"/>
     <use style="fill:#66c2a5;stroke:#66c2a5;" x="309.285" xlink:href="#md2398a01c8" y="216.803763"/>
     <use style="fill:#66c2a5;stroke:#66c2a5;" x="313.47" xlink:href="#md2398a01c8" y="219.91588"/>
     <use style="fill:#66c2a5;stroke:#66c2a5;" x="317.655" xlink:href="#md2398a01c8" y="221.731282"/>
     <use style="fill:#66c2a5;stroke:#66c2a5;" x="321.84" xlink:href="#md2398a01c8" y="223.183603"/>
     <use style="fill:#66c2a5;stroke:#66c2a5;" x="326.025" xlink:href="#md2398a01c8" y="223.702289"/>
     <use style="fill:#66c2a5;stroke:#66c2a5;" x="330.21" xlink:href="#md2398a01c8" y="224.584056"/>
     <use style="fill:#66c2a5;stroke:#66c2a5;" x="334.395" xlink:href="#md2398a01c8" y="227.644304"/>
     <use style="fill:#66c2a5;stroke:#66c2a5;" x="338.58" xlink:href="#md2398a01c8" y="227.073749"/>
     <use style="fill:#66c2a5;stroke:#66c2a5;" x="342.765" xlink:href="#md2398a01c8" y="224.687793"/>
     <use style="fill:#66c2a5;stroke:#66c2a5;" x="346.95" xlink:href="#md2398a01c8" y="229.874655"/>
     <use style="fill:#66c2a5;stroke:#66c2a5;" x="351.135" xlink:href="#md2398a01c8" y="228.992888"/>
     <use style="fill:#66c2a5;stroke:#66c2a5;" x="355.32" xlink:href="#md2398a01c8" y="233.194246"/>
     <use style="fill:#66c2a5;stroke:#66c2a5;" x="359.505" xlink:href="#md2398a01c8" y="230.652684"/>
     <use style="fill:#66c2a5;stroke:#66c2a5;" x="363.69" xlink:href="#md2398a01c8" y="232.364348"/>
     <use style="fill:#66c2a5;stroke:#66c2a5;" x="367.875" xlink:href="#md2398a01c8" y="230.289604"/>
     <use style="fill:#66c2a5;stroke:#66c2a5;" x="372.06" xlink:href="#md2398a01c8" y="230.652684"/>
     <use style="fill:#66c2a5;stroke:#66c2a5;" x="376.245" xlink:href="#md2398a01c8" y="231.326976"/>
     <use style="fill:#66c2a5;stroke:#66c2a5;" x="380.43" xlink:href="#md2398a01c8" y="233.246115"/>
     <use style="fill:#66c2a5;stroke:#66c2a5;" x="384.615" xlink:href="#md2398a01c8" y="233.972275"/>
     <use style="fill:#66c2a5;stroke:#66c2a5;" x="388.8" xlink:href="#md2398a01c8" y="234.54283"/>
     <use style="fill:#66c2a5;stroke:#66c2a5;" x="392.985" xlink:href="#md2398a01c8" y="233.972275"/>
     <use style="fill:#66c2a5;stroke:#66c2a5;" x="397.17" xlink:href="#md2398a01c8" y="234.439093"/>
     <use style="fill:#66c2a5;stroke:#66c2a5;" x="401.355" xlink:href="#md2398a01c8" y="235.995151"/>
     <use style="fill:#66c2a5;stroke:#66c2a5;" x="405.54" xlink:href="#md2398a01c8" y="232.986772"/>
     <use style="fill:#66c2a5;stroke:#66c2a5;" x="409.725" xlink:href="#md2398a01c8" y="235.891414"/>
     <use style="fill:#66c2a5;stroke:#66c2a5;" x="413.91" xlink:href="#md2398a01c8" y="233.868538"/>
     <use style="fill:#66c2a5;stroke:#66c2a5;" x="418.095" xlink:href="#md2398a01c8" y="235.424597"/>
     <use style="fill:#66c2a5;stroke:#66c2a5;" x="422.28" xlink:href="#md2398a01c8" y="238.173633"/>
     <use style="fill:#66c2a5;stroke:#66c2a5;" x="426.465" xlink:href="#md2398a01c8" y="236.04702"/>
     <use style="fill:#66c2a5;stroke:#66c2a5;" x="430.65" xlink:href="#md2398a01c8" y="234.90591"/>
     <use style="fill:#66c2a5;stroke:#66c2a5;" x="434.835" xlink:href="#md2398a01c8" y="237.447473"/>
     <use style="fill:#66c2a5;stroke:#66c2a5;" x="439.02" xlink:href="#md2398a01c8" y="239.003531"/>
     <use style="fill:#66c2a5;stroke:#66c2a5;" x="443.205" xlink:href="#md2398a01c8" y="238.432976"/>
     <use style="fill:#66c2a5;stroke:#66c2a5;" x="447.39" xlink:href="#md2398a01c8" y="237.032524"/>
     <use style="fill:#66c2a5;stroke:#66c2a5;" x="451.575" xlink:href="#md2398a01c8" y="235.372728"/>
     <use style="fill:#66c2a5;stroke:#66c2a5;" x="455.76" xlink:href="#md2398a01c8" y="233.868538"/>
     <use style="fill:#66c2a5;stroke:#66c2a5;" x="459.945" xlink:href="#md2398a01c8" y="236.4101"/>
     <use style="fill:#66c2a5;stroke:#66c2a5;" x="464.13" xlink:href="#md2398a01c8" y="236.358232"/>
     <use style="fill:#66c2a5;stroke:#66c2a5;" x="468.315" xlink:href="#md2398a01c8" y="236.04702"/>
     <use style="fill:#66c2a5;stroke:#66c2a5;" x="472.5" xlink:href="#md2398a01c8" y="236.980655"/>
     <use style="fill:#66c2a5;stroke:#66c2a5;" x="476.685" xlink:href="#md2398a01c8" y="236.669443"/>
     <use style="fill:#66c2a5;stroke:#66c2a5;" x="480.87" xlink:href="#md2398a01c8" y="236.825049"/>
     <use style="fill:#66c2a5;stroke:#66c2a5;" x="485.055" xlink:href="#md2398a01c8" y="236.513837"/>
     <use style="fill:#66c2a5;stroke:#66c2a5;" x="489.24" xlink:href="#md2398a01c8" y="235.735808"/>
     <use style="fill:#66c2a5;stroke:#66c2a5;" x="493.425" xlink:href="#md2398a01c8" y="236.565706"/>
     <use style="fill:#66c2a5;stroke:#66c2a5;" x="497.61" xlink:href="#md2398a01c8" y="236.617575"/>
     <use style="fill:#66c2a5;stroke:#66c2a5;" x="501.795" xlink:href="#md2398a01c8" y="238.069896"/>
     <use style="fill:#66c2a5;stroke:#66c2a5;" x="505.98" xlink:href="#md2398a01c8" y="238.951662"/>
     <use style="fill:#66c2a5;stroke:#66c2a5;" x="510.165" xlink:href="#md2398a01c8" y="238.225502"/>
     <use style="fill:#66c2a5;stroke:#66c2a5;" x="514.35" xlink:href="#md2398a01c8" y="239.729692"/>
     <use style="fill:#66c2a5;stroke:#66c2a5;" x="518.535" xlink:href="#md2398a01c8" y="235.217122"/>
     <use style="fill:#66c2a5;stroke:#66c2a5;" x="522.72" xlink:href="#md2398a01c8" y="234.750305"/>
     <use style="fill:#66c2a5;stroke:#66c2a5;" x="526.905" xlink:href="#md2398a01c8" y="236.980655"/>
     <use style="fill:#66c2a5;stroke:#66c2a5;" x="531.09" xlink:href="#md2398a01c8" y="238.432976"/>
     <use style="fill:#66c2a5;stroke:#66c2a5;" x="535.275" xlink:href="#md2398a01c8" y="236.565706"/>
     <use style="fill:#66c2a5;stroke:#66c2a5;" x="539.46" xlink:href="#md2398a01c8" y="237.499341"/>
     <use style="fill:#66c2a5;stroke:#66c2a5;" x="543.645" xlink:href="#md2398a01c8" y="236.513837"/>
     <use style="fill:#66c2a5;stroke:#66c2a5;" x="547.83" xlink:href="#md2398a01c8" y="235.632071"/>
     <use style="fill:#66c2a5;stroke:#66c2a5;" x="552.015" xlink:href="#md2398a01c8" y="237.136261"/>
     <use style="fill:#66c2a5;stroke:#66c2a5;" x="556.2" xlink:href="#md2398a01c8" y="236.825049"/>
     <use style="fill:#66c2a5;stroke:#66c2a5;" x="560.385" xlink:href="#md2398a01c8" y="236.306363"/>
     <use style="fill:#66c2a5;stroke:#66c2a5;" x="564.57" xlink:href="#md2398a01c8" y="238.381108"/>
     <use style="fill:#66c2a5;stroke:#66c2a5;" x="568.755" xlink:href="#md2398a01c8" y="237.447473"/>
     <use style="fill:#66c2a5;stroke:#66c2a5;" x="572.94" xlink:href="#md2398a01c8" y="235.217122"/>
     <use style="fill:#66c2a5;stroke:#66c2a5;" x="577.125" xlink:href="#md2398a01c8" y="236.617575"/>
     <use style="fill:#66c2a5;stroke:#66c2a5;" x="581.31" xlink:href="#md2398a01c8" y="239.211006"/>
     <use style="fill:#66c2a5;stroke:#66c2a5;" x="585.495" xlink:href="#md2398a01c8" y="236.04702"/>
     <use style="fill:#66c2a5;stroke:#66c2a5;" x="589.68" xlink:href="#md2398a01c8" y="235.995151"/>
     <use style="fill:#66c2a5;stroke:#66c2a5;" x="593.865" xlink:href="#md2398a01c8" y="238.432976"/>
     <use style="fill:#66c2a5;stroke:#66c2a5;" x="598.05" xlink:href="#md2398a01c8" y="238.225502"/>
     <use style="fill:#66c2a5;stroke:#66c2a5;" x="602.235" xlink:href="#md2398a01c8" y="238.588582"/>
     <use style="fill:#66c2a5;stroke:#66c2a5;" x="606.42" xlink:href="#md2398a01c8" y="236.773181"/>
     <use style="fill:#66c2a5;stroke:#66c2a5;" x="610.605" xlink:href="#md2398a01c8" y="235.891414"/>
     <use style="fill:#66c2a5;stroke:#66c2a5;" x="614.79" xlink:href="#md2398a01c8" y="235.839545"/>
     <use style="fill:#66c2a5;stroke:#66c2a5;" x="618.975" xlink:href="#md2398a01c8" y="237.810553"/>
     <use style="fill:#66c2a5;stroke:#66c2a5;" x="623.16" xlink:href="#md2398a01c8" y="238.536713"/>
     <use style="fill:#66c2a5;stroke:#66c2a5;" x="627.345" xlink:href="#md2398a01c8" y="237.91429"/>
     <use style="fill:#66c2a5;stroke:#66c2a5;" x="631.53" xlink:href="#md2398a01c8" y="236.461969"/>
     <use style="fill:#66c2a5;stroke:#66c2a5;" x="635.715" xlink:href="#md2398a01c8" y="237.136261"/>
     <use style="fill:#66c2a5;stroke:#66c2a5;" x="639.9" xlink:href="#md2398a01c8" y="237.55121"/>
     <use style="fill:#66c2a5;stroke:#66c2a5;" x="644.085" xlink:href="#md2398a01c8" y="236.617575"/>
     <use style="fill:#66c2a5;stroke:#66c2a5;" x="648.27" xlink:href="#md2398a01c8" y="236.773181"/>
     <use style="fill:#66c2a5;stroke:#66c2a5;" x="652.455" xlink:href="#md2398a01c8" y="234.387224"/>
     <use style="fill:#66c2a5;stroke:#66c2a5;" x="656.64" xlink:href="#md2398a01c8" y="237.603078"/>
     <use style="fill:#66c2a5;stroke:#66c2a5;" x="660.825" xlink:href="#md2398a01c8" y="237.291867"/>
     <use style="fill:#66c2a5;stroke:#66c2a5;" x="665.01" xlink:href="#md2398a01c8" y="234.750305"/>
     <use style="fill:#66c2a5;stroke:#66c2a5;" x="669.195" xlink:href="#md2398a01c8" y="238.588582"/>
     <use style="fill:#66c2a5;stroke:#66c2a5;" x="673.38" xlink:href="#md2398a01c8" y="236.461969"/>
     <use style="fill:#66c2a5;stroke:#66c2a5;" x="677.565" xlink:href="#md2398a01c8" y="237.239998"/>
     <use style="fill:#66c2a5;stroke:#66c2a5;" x="681.75" xlink:href="#md2398a01c8" y="238.692319"/>
     <use style="fill:#66c2a5;stroke:#66c2a5;" x="685.935" xlink:href="#md2398a01c8" y="238.484845"/>
     <use style="fill:#66c2a5;stroke:#66c2a5;" x="690.12" xlink:href="#md2398a01c8" y="236.4101"/>
     <use style="fill:#66c2a5;stroke:#66c2a5;" x="694.305" xlink:href="#md2398a01c8" y="236.773181"/>
     <use style="fill:#66c2a5;stroke:#66c2a5;" x="698.49" xlink:href="#md2398a01c8" y="239.989035"/>
     <use style="fill:#66c2a5;stroke:#66c2a5;" x="702.675" xlink:href="#md2398a01c8" y="234.802173"/>
     <use style="fill:#66c2a5;stroke:#66c2a5;" x="706.86" xlink:href="#md2398a01c8" y="235.528334"/>
     <use style="fill:#66c2a5;stroke:#66c2a5;" x="711.045" xlink:href="#md2398a01c8" y="238.588582"/>
     <use style="fill:#66c2a5;stroke:#66c2a5;" x="715.23" xlink:href="#md2398a01c8" y="240.248378"/>
     <use style="fill:#66c2a5;stroke:#66c2a5;" x="719.415" xlink:href="#md2398a01c8" y="238.692319"/>
     <use style="fill:#66c2a5;stroke:#66c2a5;" x="723.6" xlink:href="#md2398a01c8" y="238.121765"/>
     <use style="fill:#66c2a5;stroke:#66c2a5;" x="727.785" xlink:href="#md2398a01c8" y="239.41848"/>
     <use style="fill:#66c2a5;stroke:#66c2a5;" x="731.97" xlink:href="#md2398a01c8" y="237.91429"/>
     <use style="fill:#66c2a5;stroke:#66c2a5;" x="736.155" xlink:href="#md2398a01c8" y="238.744188"/>
     <use style="fill:#66c2a5;stroke:#66c2a5;" x="740.34" xlink:href="#md2398a01c8" y="237.032524"/>
     <use style="fill:#66c2a5;stroke:#66c2a5;" x="744.525" xlink:href="#md2398a01c8" y="236.513837"/>
     <use style="fill:#66c2a5;stroke:#66c2a5;" x="748.71" xlink:href="#md2398a01c8" y="236.721312"/>
     <use style="fill:#66c2a5;stroke:#66c2a5;" x="752.895" xlink:href="#md2398a01c8" y="238.381108"/>
     <use style="fill:#66c2a5;stroke:#66c2a5;" x="757.08" xlink:href="#md2398a01c8" y="240.040903"/>
     <use style="fill:#66c2a5;stroke:#66c2a5;" x="761.265" xlink:href="#md2398a01c8" y="238.744188"/>
     <use style="fill:#66c2a5;stroke:#66c2a5;" x="765.45" xlink:href="#md2398a01c8" y="238.381108"/>
     <use style="fill:#66c2a5;stroke:#66c2a5;" x="769.635" xlink:href="#md2398a01c8" y="235.943283"/>
     <use style="fill:#66c2a5;stroke:#66c2a5;" x="773.82" xlink:href="#md2398a01c8" y="236.617575"/>
     <use style="fill:#66c2a5;stroke:#66c2a5;" x="778.005" xlink:href="#md2398a01c8" y="238.069896"/>
     <use style="fill:#66c2a5;stroke:#66c2a5;" x="782.19" xlink:href="#md2398a01c8" y="238.121765"/>
     <use style="fill:#66c2a5;stroke:#66c2a5;" x="786.375" xlink:href="#md2398a01c8" y="237.291867"/>
     <use style="fill:#66c2a5;stroke:#66c2a5;" x="790.56" xlink:href="#md2398a01c8" y="237.55121"/>
     <use style="fill:#66c2a5;stroke:#66c2a5;" x="794.745" xlink:href="#md2398a01c8" y="237.862421"/>
     <use style="fill:#66c2a5;stroke:#66c2a5;" x="798.93" xlink:href="#md2398a01c8" y="237.758684"/>
     <use style="fill:#66c2a5;stroke:#66c2a5;" x="803.115" xlink:href="#md2398a01c8" y="236.669443"/>
     <use style="fill:#66c2a5;stroke:#66c2a5;" x="807.3" xlink:href="#md2398a01c8" y="237.810553"/>
     <use style="fill:#66c2a5;stroke:#66c2a5;" x="811.485" xlink:href="#md2398a01c8" y="234.54283"/>
     <use style="fill:#66c2a5;stroke:#66c2a5;" x="815.67" xlink:href="#md2398a01c8" y="237.395604"/>
     <use style="fill:#66c2a5;stroke:#66c2a5;" x="819.855" xlink:href="#md2398a01c8" y="237.603078"/>
     <use style="fill:#66c2a5;stroke:#66c2a5;" x="824.04" xlink:href="#md2398a01c8" y="238.018027"/>
     <use style="fill:#66c2a5;stroke:#66c2a5;" x="828.225" xlink:href="#md2398a01c8" y="239.41848"/>
     <use style="fill:#66c2a5;stroke:#66c2a5;" x="832.41" xlink:href="#md2398a01c8" y="238.173633"/>
     <use style="fill:#66c2a5;stroke:#66c2a5;" x="836.595" xlink:href="#md2398a01c8" y="236.617575"/>
     <use style="fill:#66c2a5;stroke:#66c2a5;" x="840.78" xlink:href="#md2398a01c8" y="237.862421"/>
     <use style="fill:#66c2a5;stroke:#66c2a5;" x="844.965" xlink:href="#md2398a01c8" y="237.291867"/>
     <use style="fill:#66c2a5;stroke:#66c2a5;" x="849.15" xlink:href="#md2398a01c8" y="237.395604"/>
     <use style="fill:#66c2a5;stroke:#66c2a5;" x="853.335" xlink:href="#md2398a01c8" y="237.499341"/>
     <use style="fill:#66c2a5;stroke:#66c2a5;" x="857.52" xlink:href="#md2398a01c8" y="236.254494"/>
     <use style="fill:#66c2a5;stroke:#66c2a5;" x="861.705" xlink:href="#md2398a01c8" y="237.136261"/>
     <use style="fill:#66c2a5;stroke:#66c2a5;" x="865.89" xlink:href="#md2398a01c8" y="237.55121"/>
     <use style="fill:#66c2a5;stroke:#66c2a5;" x="870.075" xlink:href="#md2398a01c8" y="235.995151"/>
     <use style="fill:#66c2a5;stroke:#66c2a5;" x="874.26" xlink:href="#md2398a01c8" y="237.343735"/>
     <use style="fill:#66c2a5;stroke:#66c2a5;" x="878.445" xlink:href="#md2398a01c8" y="235.476465"/>
     <use style="fill:#66c2a5;stroke:#66c2a5;" x="882.63" xlink:href="#md2398a01c8" y="237.654947"/>
     <use style="fill:#66c2a5;stroke:#66c2a5;" x="886.815" xlink:href="#md2398a01c8" y="237.395604"/>
     <use style="fill:#66c2a5;stroke:#66c2a5;" x="891" xlink:href="#md2398a01c8" y="238.381108"/>
     <use style="fill:#66c2a5;stroke:#66c2a5;" x="895.185" xlink:href="#md2398a01c8" y="237.239998"/>
     <use style="fill:#66c2a5;stroke:#66c2a5;" x="899.37" xlink:href="#md2398a01c8" y="237.91429"/>
     <use style="fill:#66c2a5;stroke:#66c2a5;" x="903.555" xlink:href="#md2398a01c8" y="238.381108"/>
     <use style="fill:#66c2a5;stroke:#66c2a5;" x="907.74" xlink:href="#md2398a01c8" y="238.588582"/>
     <use style="fill:#66c2a5;stroke:#66c2a5;" x="911.925" xlink:href="#md2398a01c8" y="237.966159"/>
     <use style="fill:#66c2a5;stroke:#66c2a5;" x="916.11" xlink:href="#md2398a01c8" y="237.032524"/>
     <use style="fill:#66c2a5;stroke:#66c2a5;" x="920.295" xlink:href="#md2398a01c8" y="236.202626"/>
     <use style="fill:#66c2a5;stroke:#66c2a5;" x="924.48" xlink:href="#md2398a01c8" y="238.329239"/>
     <use style="fill:#66c2a5;stroke:#66c2a5;" x="928.665" xlink:href="#md2398a01c8" y="237.654947"/>
     <use style="fill:#66c2a5;stroke:#66c2a5;" x="932.85" xlink:href="#md2398a01c8" y="237.291867"/>
     <use style="fill:#66c2a5;stroke:#66c2a5;" x="937.035" xlink:href="#md2398a01c8" y="234.646567"/>
     <use style="fill:#66c2a5;stroke:#66c2a5;" x="941.22" xlink:href="#md2398a01c8" y="239.625954"/>
     <use style="fill:#66c2a5;stroke:#66c2a5;" x="945.405" xlink:href="#md2398a01c8" y="236.669443"/>
     <use style="fill:#66c2a5;stroke:#66c2a5;" x="949.59" xlink:href="#md2398a01c8" y="234.490961"/>
     <use style="fill:#66c2a5;stroke:#66c2a5;" x="953.775" xlink:href="#md2398a01c8" y="236.4101"/>
     <use style="fill:#66c2a5;stroke:#66c2a5;" x="957.96" xlink:href="#md2398a01c8" y="236.876918"/>
     <use style="fill:#66c2a5;stroke:#66c2a5;" x="962.145" xlink:href="#md2398a01c8" y="235.113385"/>
     <use style="fill:#66c2a5;stroke:#66c2a5;" x="966.33" xlink:href="#md2398a01c8" y="237.188129"/>
     <use style="fill:#66c2a5;stroke:#66c2a5;" x="970.515" xlink:href="#md2398a01c8" y="236.565706"/>
     <use style="fill:#66c2a5;stroke:#66c2a5;" x="974.7" xlink:href="#md2398a01c8" y="238.381108"/>
     <use style="fill:#66c2a5;stroke:#66c2a5;" x="978.885" xlink:href="#md2398a01c8" y="237.084392"/>
     <use style="fill:#66c2a5;stroke:#66c2a5;" x="983.07" xlink:href="#md2398a01c8" y="236.254494"/>
     <use style="fill:#66c2a5;stroke:#66c2a5;" x="987.255" xlink:href="#md2398a01c8" y="236.928786"/>
     <use style="fill:#66c2a5;stroke:#66c2a5;" x="991.44" xlink:href="#md2398a01c8" y="238.536713"/>
     <use style="fill:#66c2a5;stroke:#66c2a5;" x="995.625" xlink:href="#md2398a01c8" y="239.0554"/>
     <use style="fill:#66c2a5;stroke:#66c2a5;" x="999.81" xlink:href="#md2398a01c8" y="239.003531"/>
     <use style="fill:#66c2a5;stroke:#66c2a5;" x="1003.995" xlink:href="#md2398a01c8" y="236.565706"/>
     <use style="fill:#66c2a5;stroke:#66c2a5;" x="1008.18" xlink:href="#md2398a01c8" y="238.121765"/>
     <use style="fill:#66c2a5;stroke:#66c2a5;" x="1012.365" xlink:href="#md2398a01c8" y="239.159137"/>
     <use style="fill:#66c2a5;stroke:#66c2a5;" x="1016.55" xlink:href="#md2398a01c8" y="237.603078"/>
     <use style="fill:#66c2a5;stroke:#66c2a5;" x="1020.735" xlink:href="#md2398a01c8" y="238.692319"/>
     <use style="fill:#66c2a5;stroke:#66c2a5;" x="1024.92" xlink:href="#md2398a01c8" y="238.951662"/>
     <use style="fill:#66c2a5;stroke:#66c2a5;" x="1029.105" xlink:href="#md2398a01c8" y="239.574086"/>
     <use style="fill:#66c2a5;stroke:#66c2a5;" x="1033.29" xlink:href="#md2398a01c8" y="238.744188"/>
     <use style="fill:#66c2a5;stroke:#66c2a5;" x="1037.475" xlink:href="#md2398a01c8" y="240.974538"/>
     <use style="fill:#66c2a5;stroke:#66c2a5;" x="1041.66" xlink:href="#md2398a01c8" y="239.989035"/>
     <use style="fill:#66c2a5;stroke:#66c2a5;" x="1045.845" xlink:href="#md2398a01c8" y="240.040903"/>
     <use style="fill:#66c2a5;stroke:#66c2a5;" x="1050.03" xlink:href="#md2398a01c8" y="238.796057"/>
     <use style="fill:#66c2a5;stroke:#66c2a5;" x="1054.215" xlink:href="#md2398a01c8" y="238.796057"/>
     <use style="fill:#66c2a5;stroke:#66c2a5;" x="1058.4" xlink:href="#md2398a01c8" y="238.069896"/>
     <use style="fill:#66c2a5;stroke:#66c2a5;" x="1062.585" xlink:href="#md2398a01c8" y="238.847925"/>
     <use style="fill:#66c2a5;stroke:#66c2a5;" x="1066.77" xlink:href="#md2398a01c8" y="241.804436"/>
     <use style="fill:#66c2a5;stroke:#66c2a5;" x="1070.955" xlink:href="#md2398a01c8" y="240.767064"/>
     <use style="fill:#66c2a5;stroke:#66c2a5;" x="1075.14" xlink:href="#md2398a01c8" y="236.825049"/>
     <use style="fill:#66c2a5;stroke:#66c2a5;" x="1079.325" xlink:href="#md2398a01c8" y="238.329239"/>
     <use style="fill:#66c2a5;stroke:#66c2a5;" x="1083.51" xlink:href="#md2398a01c8" y="238.588582"/>
     <use style="fill:#66c2a5;stroke:#66c2a5;" x="1087.695" xlink:href="#md2398a01c8" y="239.78156"/>
     <use style="fill:#66c2a5;stroke:#66c2a5;" x="1091.88" xlink:href="#md2398a01c8" y="237.758684"/>
    </g>
   </g>
   <g id="line2d_18">
    <path clip-path="url(#p6412d26ed3)" d="M -1 234.957774 
L 74.925 234.863654 
L 87.48 234.630616 
L 95.85 234.252189 
L 100.035 233.940662 
L 104.22 233.509655 
L 108.405 232.921408 
L 112.59 232.129487 
L 116.775 231.077991 
L 120.96 229.70114 
L 125.145 227.92342 
L 129.33 225.66047 
L 133.515 222.820919 
L 137.7 219.309315 
L 141.885 215.030251 
L 146.07 209.893717 
L 150.255 203.821565 
L 154.44 196.754866 
L 158.625 188.661779 
L 162.81 179.545401 
L 166.995 169.450972 
L 171.18 158.4717 
L 175.365 146.752478 
L 183.735 121.934414 
L 192.105 97.139422 
L 196.29 85.57485 
L 200.475 75.03468 
L 204.66 65.860062 
L 208.845 58.36188 
L 213.03 52.80332 
L 217.215 49.384551 
L 221.4 48.230761 
L 225.585 49.384551 
L 229.77 52.80332 
L 233.955 58.36188 
L 238.14 65.860062 
L 242.325 75.03468 
L 246.51 85.57485 
L 250.695 97.139422 
L 259.065 121.934414 
L 267.435 146.752478 
L 271.62 158.4717 
L 275.805 169.450972 
L 279.99 179.545401 
L 284.175 188.661779 
L 288.36 196.754866 
L 292.545 203.821565 
L 296.73 209.893717 
L 300.915 215.030251 
L 305.1 219.309315 
L 309.285 222.820919 
L 313.47 225.66047 
L 317.655 227.92342 
L 321.84 229.70114 
L 326.025 231.077991 
L 330.21 232.129487 
L 334.395 232.921408 
L 338.58 233.509655 
L 342.765 233.940662 
L 351.135 234.47433 
L 359.505 234.739106 
L 372.06 234.897163 
L 401.355 234.955811 
L 433 234.957753 
L 433 234.957753 
" style="fill:none;stroke:#000000;stroke-linecap:round;stroke-width:1.5;"/>
   </g>
   <g id="patch_3">
    <path d="M 54 252 
L 54 34.56 
" style="fill:none;stroke:#262626;stroke-linecap:square;stroke-linejoin:miter;stroke-width:1.25;"/>
   </g>
   <g id="patch_4">
    <path d="M 388.8 252 
L 388.8 34.56 
" style="fill:none;stroke:#262626;stroke-linecap:square;stroke-linejoin:miter;stroke-width:1.25;"/>
   </g>
   <g id="patch_5">
    <path d="M 54 252 
L 388.8 252 
" style="fill:none;stroke:#262626;stroke-linecap:square;stroke-linejoin:miter;stroke-width:1.25;"/>
   </g>
   <g id="patch_6">
    <path d="M 54 34.56 
L 388.8 34.56 
" style="fill:none;stroke:#262626;stroke-linecap:square;stroke-linejoin:miter;stroke-width:1.25;"/>
   </g>
   <g id="text_21">
    <!-- CPA Autocorrelation -->
    <defs>
     <path d="M 58.796875 25.09375 
L 68.265625 22.703125 
Q 65.28125 11.03125 57.546875 4.90625 
Q 49.8125 -1.21875 38.625 -1.21875 
Q 27.046875 -1.21875 19.796875 3.484375 
Q 12.546875 8.203125 8.765625 17.140625 
Q 4.984375 26.078125 4.984375 36.328125 
Q 4.984375 47.515625 9.25 55.828125 
Q 13.53125 64.15625 21.40625 68.46875 
Q 29.296875 72.796875 38.765625 72.796875 
Q 49.515625 72.796875 56.828125 67.328125 
Q 64.15625 61.859375 67.046875 51.953125 
L 57.71875 49.75 
Q 55.21875 57.5625 50.484375 61.125 
Q 45.75 64.703125 38.578125 64.703125 
Q 30.328125 64.703125 24.78125 60.734375 
Q 19.234375 56.78125 16.984375 50.109375 
Q 14.75 43.453125 14.75 36.375 
Q 14.75 27.25 17.40625 20.4375 
Q 20.0625 13.625 25.671875 10.25 
Q 31.296875 6.890625 37.84375 6.890625 
Q 45.796875 6.890625 51.3125 11.46875 
Q 56.84375 16.0625 58.796875 25.09375 
z
" id="ArialMT-43"/>
     <path d="M 7.71875 0 
L 7.71875 71.578125 
L 34.71875 71.578125 
Q 41.84375 71.578125 45.609375 70.90625 
Q 50.875 70.015625 54.4375 67.546875 
Q 58.015625 65.09375 60.1875 60.640625 
Q 62.359375 56.203125 62.359375 50.875 
Q 62.359375 41.75 56.546875 35.421875 
Q 50.734375 29.109375 35.546875 29.109375 
L 17.1875 29.109375 
L 17.1875 0 
z
M 17.1875 37.546875 
L 35.6875 37.546875 
Q 44.875 37.546875 48.734375 40.96875 
Q 52.59375 44.390625 52.59375 50.59375 
Q 52.59375 55.078125 50.3125 58.265625 
Q 48.046875 61.46875 44.34375 62.5 
Q 41.9375 63.140625 35.5 63.140625 
L 17.1875 63.140625 
z
" id="ArialMT-50"/>
     <path d="M -0.140625 0 
L 27.34375 71.578125 
L 37.546875 71.578125 
L 66.84375 0 
L 56.0625 0 
L 47.703125 21.6875 
L 17.78125 21.6875 
L 9.90625 0 
z
M 20.515625 29.390625 
L 44.78125 29.390625 
L 37.3125 49.21875 
Q 33.890625 58.25 32.234375 64.0625 
Q 30.859375 57.171875 28.375 50.390625 
z
" id="ArialMT-41"/>
     <path d="M 3.328125 25.921875 
Q 3.328125 40.328125 11.328125 47.265625 
Q 18.015625 53.03125 27.640625 53.03125 
Q 38.328125 53.03125 45.109375 46.015625 
Q 51.90625 39.015625 51.90625 26.65625 
Q 51.90625 16.65625 48.90625 10.90625 
Q 45.90625 5.171875 40.15625 2 
Q 34.421875 -1.171875 27.640625 -1.171875 
Q 16.75 -1.171875 10.03125 5.8125 
Q 3.328125 12.796875 3.328125 25.921875 
z
M 12.359375 25.921875 
Q 12.359375 15.96875 16.703125 11.015625 
Q 21.046875 6.0625 27.640625 6.0625 
Q 34.1875 6.0625 38.53125 11.03125 
Q 42.875 16.015625 42.875 26.21875 
Q 42.875 35.84375 38.5 40.796875 
Q 34.125 45.75 27.640625 45.75 
Q 21.046875 45.75 16.703125 40.8125 
Q 12.359375 35.890625 12.359375 25.921875 
z
" id="ArialMT-6f"/>
     <path d="M 40.4375 19 
L 49.078125 17.875 
Q 47.65625 8.9375 41.8125 3.875 
Q 35.984375 -1.171875 27.484375 -1.171875 
Q 16.84375 -1.171875 10.375 5.78125 
Q 3.90625 12.75 3.90625 25.734375 
Q 3.90625 34.125 6.6875 40.421875 
Q 9.46875 46.734375 15.15625 49.875 
Q 20.84375 53.03125 27.546875 53.03125 
Q 35.984375 53.03125 41.359375 48.75 
Q 46.734375 44.484375 48.25 36.625 
L 39.703125 35.296875 
Q 38.484375 40.53125 35.375 43.15625 
Q 32.28125 45.796875 27.875 45.796875 
Q 21.234375 45.796875 17.078125 41.03125 
Q 12.9375 36.28125 12.9375 25.984375 
Q 12.9375 15.53125 16.9375 10.796875 
Q 20.953125 6.0625 27.390625 6.0625 
Q 32.5625 6.0625 36.03125 9.234375 
Q 39.5 12.40625 40.4375 19 
z
" id="ArialMT-63"/>
    </defs>
    <g style="fill:#262626;" transform="translate(167.057813 28.56)scale(0.12 -0.12)">
     <use xlink:href="#ArialMT-43"/>
     <use x="72.216797" xlink:href="#ArialMT-50"/>
     <use x="138.806641" xlink:href="#ArialMT-41"/>
     <use x="205.427734" xlink:href="#ArialMT-20"/>
     <use x="233.132812" xlink:href="#ArialMT-41"/>
     <use x="299.832031" xlink:href="#ArialMT-75"/>
     <use x="355.447266" xlink:href="#ArialMT-74"/>
     <use x="383.230469" xlink:href="#ArialMT-6f"/>
     <use x="438.845703" xlink:href="#ArialMT-63"/>
     <use x="488.845703" xlink:href="#ArialMT-6f"/>
     <use x="544.460938" xlink:href="#ArialMT-72"/>
     <use x="577.761719" xlink:href="#ArialMT-72"/>
     <use x="611.0625" xlink:href="#ArialMT-65"/>
     <use x="666.677734" xlink:href="#ArialMT-6c"/>
     <use x="688.894531" xlink:href="#ArialMT-61"/>
     <use x="744.509766" xlink:href="#ArialMT-74"/>
     <use x="772.292969" xlink:href="#ArialMT-69"/>
     <use x="794.509766" xlink:href="#ArialMT-6f"/>
     <use x="850.125" xlink:href="#ArialMT-6e"/>
    </g>
   </g>
   <g id="legend_1">
    <g id="patch_7">
     <path d="M 146.477109 246.5 
L 296.322891 246.5 
Q 298.522891 246.5 298.522891 244.3 
L 298.522891 229.840156 
Q 298.522891 227.640156 296.322891 227.640156 
L 146.477109 227.640156 
Q 144.277109 227.640156 144.277109 229.840156 
L 144.277109 244.3 
Q 144.277109 246.5 146.477109 246.5 
z
" style="fill:#ffffff;opacity:0.8;stroke:#cccccc;stroke-linejoin:miter;"/>
    </g>
    <g id="line2d_19">
     <path d="M 148.677109 236.06375 
L 170.677109 236.06375 
" style="fill:none;stroke:#000000;stroke-linecap:round;stroke-width:1.5;"/>
    </g>
    <g id="line2d_20"/>
    <g id="text_22">
     <!-- Pulse Duration = 150 fs -->
     <defs>
      <path d="M 52.828125 42.09375 
L 5.5625 42.09375 
L 5.5625 50.296875 
L 52.828125 50.296875 
z
M 52.828125 20.359375 
L 5.5625 20.359375 
L 5.5625 28.5625 
L 52.828125 28.5625 
z
" id="ArialMT-3d"/>
      <path d="M 8.6875 0 
L 8.6875 45.015625 
L 0.921875 45.015625 
L 0.921875 51.859375 
L 8.6875 51.859375 
L 8.6875 57.375 
Q 8.6875 62.59375 9.625 65.140625 
Q 10.890625 68.5625 14.078125 70.671875 
Q 17.28125 72.796875 23.046875 72.796875 
Q 26.765625 72.796875 31.25 71.921875 
L 29.9375 64.265625 
Q 27.203125 64.75 24.75 64.75 
Q 20.75 64.75 19.09375 63.03125 
Q 17.4375 61.328125 17.4375 56.640625 
L 17.4375 51.859375 
L 27.546875 51.859375 
L 27.546875 45.015625 
L 17.4375 45.015625 
L 17.4375 0 
z
" id="ArialMT-66"/>
     </defs>
     <g style="fill:#262626;" transform="translate(179.477109 239.91375)scale(0.11 -0.11)">
      <use xlink:href="#ArialMT-50"/>
      <use x="66.699219" xlink:href="#ArialMT-75"/>
      <use x="122.314453" xlink:href="#ArialMT-6c"/>
      <use x="144.53125" xlink:href="#ArialMT-73"/>
      <use x="194.53125" xlink:href="#ArialMT-65"/>
      <use x="250.146484" xlink:href="#ArialMT-20"/>
      <use x="277.929688" xlink:href="#ArialMT-44"/>
      <use x="350.146484" xlink:href="#ArialMT-75"/>
      <use x="405.761719" xlink:href="#ArialMT-72"/>
      <use x="439.0625" xlink:href="#ArialMT-61"/>
      <use x="494.677734" xlink:href="#ArialMT-74"/>
      <use x="522.460938" xlink:href="#ArialMT-69"/>
      <use x="544.677734" xlink:href="#ArialMT-6f"/>
      <use x="600.292969" xlink:href="#ArialMT-6e"/>
      <use x="655.908203" xlink:href="#ArialMT-20"/>
      <use x="683.691406" xlink:href="#ArialMT-3d"/>
      <use x="742.089844" xlink:href="#ArialMT-20"/>
      <use x="769.873047" xlink:href="#ArialMT-31"/>
      <use x="825.488281" xlink:href="#ArialMT-35"/>
      <use x="881.103516" xlink:href="#ArialMT-30"/>
      <use x="936.71875" xlink:href="#ArialMT-20"/>
      <use x="964.501953" xlink:href="#ArialMT-66"/>
      <use x="992.285156" xlink:href="#ArialMT-73"/>
     </g>
    </g>
   </g>
  </g>
 </g>
 <defs>
  <clipPath id="p6412d26ed3">
   <rect height="217.44" width="334.8" x="54" y="34.56"/>
  </clipPath>
 </defs>
</svg>
